# xmcd
#
# Track frame offsets: 
#        150
#        19156
#        37902
#        49296
#        63338
#        83808
#        97437
#        115262
#        131620
#        149042
#        164864
#        182401
#
# Disc length: 2610 seconds
#
# Revision: 1
# Processed by: cddbd v1.5.2PL0 Copyright (c) Steve Scherf et al.
# Submitted via: ExactAudioCopy v1.0b1
#
DISCID=b10a300c
DTITLE=Gunter Gabriel - Gunter Gabriel
DYEAR=1975
DGENRE=Country
TTITLE0=Intercity Linie Nr. 4
TTITLE1=Die Hochzeit (Ab heut' gehört sie mir)
TTITLE2=Oh nur mit dir (Oh Lonesome Me)
TTITLE3=Worte, die ich leider nie gesagt
TTITLE4=Das ist bei mir schon Tradition
TTITLE5=Heut' ist nicht mein Tag
TTITLE6=Komm' unter meine Decke
TTITLE7=Das schwarze Schaf
TTITLE8=Mit dem Hammer in der Hand (Das Lied vom einfachen Mann)
TTITLE9=Mach' nicht deine Tür zu (Someone To Give My Love To)
TTITLE10=Noch zwanzig Minuten zu gehn (Twenty Five Minutes To Go)
TTITLE11=Adios Amigo
EXTD=YEAR: 1976
EXTT0=
EXTT1=
EXTT2=
EXTT3=
EXTT4=
EXTT5=
EXTT6=
EXTT7=
EXTT8=
EXTT9=
EXTT10=
EXTT11=
PLAYORDER=
